<?xml version="1.0" standalone="no"?>
<!DOCTYPE svg PUBLIC "-//W3C//DTD SVG 20010904//EN"
 "http://www.w3.org/TR/2001/REC-SVG-20010904/DTD/svg10.dtd">
<svg version="1.0" xmlns="http://www.w3.org/2000/svg"
 width="667.000000pt" height="667.000000pt" viewBox="0 0 667.000000 667.000000"
 preserveAspectRatio="xMidYMid meet">
<metadata>
Created by potrace 1.11, written by Peter Selinger 2001-2013
</metadata>
<g transform="translate(0.000000,667.000000) scale(0.100000,-0.100000)"
fill="#000000" stroke="none">
<path d="M3188 5574 c-2 -1 -37 -5 -78 -9 -205 -19 -473 -83 -606 -146 -22
-10 -43 -19 -47 -19 -14 0 -204 -97 -282 -145 -65 -40 -194 -129 -240 -167
-141 -116 -316 -300 -391 -410 -16 -24 -39 -54 -51 -68 -13 -14 -23 -28 -23
-33 0 -4 -16 -31 -35 -60 -19 -28 -35 -57 -35 -64 0 -6 -4 -13 -8 -15 -10 -3
-113 -216 -129 -263 -1 -5 -21 -62 -42 -125 -22 -63 -42 -126 -44 -140 -3 -14
-10 -43 -15 -65 -6 -22 -13 -56 -16 -75 -3 -19 -8 -46 -11 -60 -5 -24 -12 -86
-20 -175 -5 -51 -5 -296 -1 -355 4 -52 15 -143 22 -180 21 -114 23 -125 50
-225 26 -97 39 -138 82 -245 25 -63 48 -117 51 -120 3 -3 22 -38 43 -78 l36
-74 -46 7 c-26 3 -60 8 -77 10 -16 2 -48 6 -70 9 -39 6 -98 11 -235 22 -93 7
-427 8 -480 2 -33 -5 -91 -33 -220 -110 -96 -56 -188 -109 -203 -117 -15 -8
-27 -18 -27 -23 0 -5 -4 -7 -9 -4 -5 3 -14 -1 -21 -9 -9 -11 -8 -25 5 -65 9
-28 18 -56 19 -63 1 -7 13 -43 25 -82 12 -38 24 -77 26 -85 2 -8 8 -27 14 -43
6 -15 13 -38 16 -50 11 -54 67 -223 75 -231 6 -6 18 -6 32 1 13 6 46 17 73 23
28 7 57 14 65 16 38 10 158 36 180 39 14 2 25 4 25 5 0 4 194 33 300 45 28 4
64 8 80 10 173 23 587 23 780 0 22 -3 58 -7 80 -9 132 -15 283 -44 312 -61 48
-26 68 -40 75 -50 4 -5 8 -6 8 -1 0 5 8 2 18 -6 39 -35 265 -139 397 -183 108
-36 271 -76 368 -90 15 -2 45 -14 67 -26 37 -21 38 -23 23 -45 -10 -17 -13
-35 -9 -59 11 -56 65 -99 156 -123 33 -9 187 -8 220 1 63 17 79 23 106 40 55
36 86 126 49 141 -33 12 21 60 81 70 16 3 40 8 54 11 14 3 39 8 55 11 191 34
485 148 665 257 79 49 113 63 165 71 22 3 51 8 65 11 68 15 170 28 320 42 97
9 560 8 665 -1 68 -6 88 -8 190 -20 89 -11 298 -47 360 -62 33 -8 71 -17 85
-20 14 -3 56 -14 93 -25 38 -11 71 -19 72 -17 2 2 27 80 56 173 28 94 54 177
57 185 7 19 6 17 21 70 7 25 21 71 32 102 31 94 31 99 -15 123 -23 11 -57 30
-76 42 -44 26 -159 94 -185 110 -11 7 -31 18 -45 25 -14 7 -27 15 -30 19 -14
17 -70 37 -110 39 -107 4 -363 1 -460 -5 -113 -7 -185 -13 -185 -15 0 -1 -18
-3 -40 -5 -22 -1 -60 -6 -85 -10 -63 -10 -130 -15 -130 -10 0 12 24 55 32 55
4 0 8 4 8 10 0 5 16 43 35 84 19 41 35 80 35 86 0 5 5 10 12 10 6 0 9 3 5 6
-3 4 1 23 9 43 30 72 75 217 79 256 2 22 10 72 19 110 33 158 41 248 41 460 0
162 -7 280 -21 346 -2 13 -7 40 -10 59 -3 19 -7 42 -10 50 -3 8 -8 26 -10 40
-11 61 -72 249 -107 330 -20 47 -94 197 -118 240 -28 50 -127 200 -139 210 -3
3 -13 16 -21 30 -37 57 -254 283 -354 367 -47 40 -125 99 -175 133 -12 8 -33
23 -45 33 -13 9 -26 17 -30 17 -4 0 -19 8 -33 19 -122 85 -459 226 -612 255
-8 1 -40 8 -70 14 -30 6 -68 14 -85 17 -16 3 -39 7 -50 9 -72 14 -456 31 -467
20z"/>
</g>
</svg>
