<svg xmlns="http://www.w3.org/2000/svg" xmlns:xlink="http://www.w3.org/1999/xlink" viewBox="0 0 667 511" version="1" id="svg2"><defs id="defs44"><filter id="filter1795" x="0" width="1" y="0" height="1" color-interpolation-filters="sRGB"><feGaussianBlur stdDeviation="28" id="feGaussianBlur1797"/></filter><path transform="rotate(30)" stroke-miterlimit="10" d="M-1 55h2v-93c2-2 2-5 2-8 0-2 0-10-3-19-3 9-3 17-3 19 0 3 0 6 2 8z" id="spearshape"/><filter id="filter1795-8" x="0" width="1" y="0" height="1" color-interpolation-filters="sRGB"><feGaussianBlur stdDeviation="28" id="feGaussianBlur1797-3"/></filter><clipPath id="band"><circle r="735" id="circle53"/></clipPath><clipPath id="gcut"><path d="M-31 0v-70h63V0zM0-47v12h32v-12z" id="path11"/></clipPath><clipPath id="band-4"><circle r="735" id="circle53-4"/></clipPath><clipPath id="gcut-4"><path d="M-31 0v-70h63V0zM0-47v12h32v-12z" id="path11-2"/></clipPath></defs><style id="style3">.st0{fill:#337fbe}.st1{fill:#3bb54a}</style><g id="g3036" transform="translate(-43 -52)"><g transform="translate(-428 496) scale(.17143)" id="g3247"><g transform="matrix(5.83333 0 0 5.83333 2495 -2892)" id="Globe"><circle class="st0" cx="376" cy="305" r="222" id="circle8" fill="#337fbe"/><g id="g10"><path class="st1" d="M176 212c3 0 5 4 8 6l9 3 3 2c1 3-3 5-2 7l2 3v2l3 3v2l1 2 8 4 2 1c6 5 0 16-1 21-2 12 3 18 9 26l4 6c6 8 15 15 22 22l2 3 1 4 7 6 18 8c7 4 13 2 19 5 10 3 21 7 29 14 3 3 3 8 3 12l-1 3-1 2-3 2-1 1c-1 1-2 3-1 4l-2 3-1 7 1 5 2 2 1 2c0 3 2 6 4 7l5 2 2 2c3 2 6 3 8 6 3 6-6 18-6 25v8l-5 15c-2 4-5 10-5 15l7 7 1 3-1 2-3 16 1 2 1 2c3 3 8 5 13 6l1-11a26 26 0 0 1 6-14h1c2 0 3-1 4-3l2-5c4-9 12-10 17-17l6-8 8-10c2-3 3-7 6-9l4-3c7-3 19-15 15-23l-2-3 2-4c2-4 18-21 8-26l-5-1c-5-2-8-7-12-9-6-2-13 0-17-6l-2-4-4-5-6-6-2-1c-3-2-9 1-14 0l-3 2c-3 0-6 0-7-2l-2-4c-2-3-8-5-9-8-1-1-3 0-4 1l-1 3-6 8c-3-1-5-3-6-5l-1-3-2-2-5-2c-2-1-5-3-5-6v-5l1-3v-2h-3l-3 3-4 1-3 2c-3 1-8-1-11-2-2 0-4-1-5-3-2-4-2-13 1-16 4-4 3-8 11-8l10 2h10l2 4 2 4 1 2v3c0 4 0 7 2 9l2-2 2-1v-2l-2-13v-3l1-2 5-11c1-3 2-7 4-8 0-2 1-3 3-3l4-1 3-2a68 68 0 0 1 14-9l5-2c1-2 0-4 2-5l2-2-1-1-5-2h-3c-2 0-4-2-5-4l-1-1 1-1 4-7 1-1 4-1 4 2h7l3 2h3l2-4c-1-3 0-8 3-11l1-1v-2c0-2-1-4-3-5s-5 1-8 1l-10-2-1-1-1-1c-1-2-3-13-6-14l-8-1c-1-1-2 0-2 1v1l-2 2-3-2-9-14-1-1h-2c-2 0-5 0-5 2l-2 2c0 6 4 14 4 20v3l-1 1c-3 2-5 12-8 13h-2l-4-3-3-4c-1-2-4-3-6-4-3-2-12-7-13-11-2-4 2-6 3-10s1-7 6-8c7-3 15-7 22-8 3 0 5 0 6-2 1-3 0-5-2-7l-8-10c-1-1-3-10-6-7l-1 1c-2 3-5 4-8 3-2 0-2-2-2-3v-12c0-2 0-4-2-5l-2 1c-2 1-5 2-6 4l-3 2h-9l-1-1-8-14-2-1c-2 0-1 5-3 6-3 1-7 4-10 2l-5-3c-4-3-6-1-8 2l-1 1 1 2 7 8c3 3-4 6 3 7l3 4 2 4 1 1c3 5-13 3-14 2-8-4-19-11-27-11-15 15-32 47-33 52" id="path12" fill="#3bb54a"/><path class="st1" d="M332 323h-5c0 2 2 3 3 4l2 3 5 1 6-1h3l3-1 2-2-1-1-5-1h-2l-4-4h-5l-3 2" id="path14" fill="#3bb54a"/><path class="st1" d="M591 354c0-3 1-8-2-11l-2-3c-6-9-1-20-15-25-7-2-14-2-21-1l-6-1c-6-3-4-12-8-18s-12-5-20-4l-26 3-7 2c-5 2-8 7-10 12-8 19-17 41-8 59 3 5 8 10 13 8l8-7c5-4 12-3 17 1l16 10c4 2 9 3 11 7l1 7c0 9 0 19-4 27-2 4-5 9-3 13l4 4c7 5 7 15 6 24 0-5 15-17 18-21a219 219 0 0 0 39-80" id="path16" fill="#3bb54a"/><path class="st1" d="M596 335c-5-6-5-14-9-19-1-2-3-3-3-5l1-5c1-5 2-11-2-15-4-5-13-5-17-10l-2-2c-2-1-4 0-5 1-4 2-9 2-13 1v-7l-7-2c-3 1-5 3-8 3l-4-1-9 1-6 3c-2 1-4 3-4 5-2 0-5 1-6 3l-6 1c-4 1-10 2-12-1l-3-5-2-9c-1-3-2-7 1-8l4-1c3 0 5-2 6-5h2c1-5-4-11-1-15l6-3c1-1 3-3 5-3h5l4-3c3-1 5 0 7 2l6 5h7l2-1 1-2c0-4 0-8-3-10l-3-3-3-3-2-4c1-2 3-2 4-2h5l1-3h9l7-2c3 1 4 4 5 7l2 7 3 2c2 0 2-3 2-5 1 1 3-1 4-3 2-6 2-13-1-19-3-5-8-9-8-15-4 4-6 8-8 13 0 3-1 6-3 7l-4 2-19 4c-2 0-5 0-7-2s-1-7 1-9l6-8 2-4c2-2 5-2 8-3 3-2 4-6 4-9 1-3 1-7 3-10 1-2 3-4 5-3l5 2c35 43 57 101 47 170" id="path18" fill="#3bb54a"/><path class="st1" d="M493 212l-3 4 1 5-1 4-6 9c-2 1-4 3-4 5v1l2 1 5-1 7-4 3-1c5-1 8-7 6-11l-4-8c0-2 0-4-2-5l-2-2-2 1" id="path20" fill="#3bb54a"/><path class="st1" d="M458 177c-2 0-4 3-6 5s-4 4-7 3l11 14 2 2h10c4-2 5-6 7-9l5-3 2-5-1-8c-2-2-7-2-10-2l-6 1c-3 0-6 1-8 3" id="path22" fill="#3bb54a"/><path class="st1" d="M378 140c3 15 7 28 13 41l2 7c4 11 15 19 26 19l2-18 1-3 5-1c3-1 3-7 6-8h4c4 0 10-4 14-6l2-1 1-2a1388 1388 0 0 0 6-15c0-2-3-3-3-6-1-4 2-9 2-13 0-3 0-10 5-9l4-13c1-2 1-5-1-6h-4c-4-1-6-6-10-5-4 0-5 3-8 4s-6-1-7-3c-1-3 1-8 3-10l-28-6-3 9h-9c-2 3-5 6-9 8-3 1-6 2-8 1-3-2-5-6-9-6l-4-13c-4 0-9-1-13 1l-3 2c-4 2-9 0-13-1l-2 17c0 2 0 5-2 6-3 2-7-1-7-4-3-3-5-8-5-13-6-3-13-2-18 3 6 3 10 9 11 16-4 2-8 0-12-2-4-3-9-5-14-6-4-1-8-1-10 2-1 2 0 4 1 6-3 4-9 5-13 2l-4-2-6 3-11 7c-1 2 6 4 8 6l7-10c5 0 7 5 9 9 1 4 2 9 5 12h5c2-1 2-14 2-15 0 0 8-6 9-5l1 1c4 4 4 11-1 15 1 1 4 2 6 1l10-2c4-1 6-9 10-5 2 4 6 10 3 13l-3 3c-4 2-5 7-4 11 2 3 6 6 10 6h4l3 2c5 4 9 11 7 16 3 3 5 7 9 9 3 3 9 3 11-2-4-2-7-6-8-10l11-2 3-9-7-7h-7c-4-1-6-4-10-6-3-1-8 1-9-1l-1-4 2-10c0-3 0-6 2-8 4-9 20-18 30-16 1 4 1 8-2 10l-4 1-6 5c-2 2-3 7 0 8-2 0-3 3-1 5l6 1 5-4 8-2c2 1 5 3 4 6" id="path24" fill="#3bb54a"/></g></g><g transform="matrix(5.83333 0 0 5.83333 2495 -2892)" id="Book"><path class="st0" d="M695 483l-5 16a383 383 0 0 0-314 40l-16-11a385 385 0 0 0-298-29l-5-16-7 20 4 17s157-47 276 8c5 2 1 10 12 23 8 8 20 12 34 12 10 0 20-1 29-7 7-5 11-12 14-20 0-2 0-8 3-8 144-55 274-7 274-7l6-18-7-20z" id="path38" fill="#337fbe"/><path id="Middle_Book" d="M709 435c-186-11-273 47-333 84-49-32-112-82-280-84-17-1-34 0-53 2l19 62s155-53 290 30l-2 3c-2 5 1 11 6 14 8 5 18 5 28 4 11-1 22-7 20-17l-3-4c135-82 289-30 289-30l19-62v-2z" fill="#d2d3d4"/><path id="Top_Book" d="M665 410c-187-10-289 98-289 98S276 400 89 410l-46 27s38-3 56-2c165 3 230 54 277 84 42-25 118-83 281-85l52 2-44-26z" fill="#e6e6e6"/></g><g id="g3518" transform="matrix(.99835 0 0 .99835 3691 -1909)"><path id="polygon49" transform="scale(3.52778)" fill="#fff" fill-rule="evenodd" d="M332 274l1-3 1 3h3l-2 2v2l-2-1-2 1v-2l-2-2z"/><path id="polygon63" transform="scale(3.52778)" fill="#fff" fill-rule="evenodd" d="M366 233l1-3 1 3h3l-2 2 1 3-3-2-2 2 1-3-2-2z"/><path id="rect2956" fill="#00a651" d="M0 0h2000v1400H0z"/><path id="polygon29" transform="scale(3.52778)" fill="#fff" fill-rule="evenodd" d="M240 252l2-4 1 4h4l-3 2 1 4-3-2-3 2 1-4-3-2z"/><path id="polygon21" transform="scale(3.52778)" fill="#fff" fill-rule="evenodd" d="M210 222l1-4 1 4h4l-3 2 1 4-3-2-3 2 1-4-3-2z"/><path id="polygon15" transform="scale(3.52778)" fill="#fff" fill-rule="evenodd" d="M201 180l2-3 1 3 4 1-3 2 1 4-3-2-3 2v-4l-2-2z"/><path id="path2846" d="M1000 170L170 700l830 530 830-530-830-530z" fill="#ffcb05"/><path id="path9" d="M1000 350a350 350 0 1 1 0 700 350 350 0 0 1 0-700z" fill="#2e3192"/><path id="polygon11" transform="scale(3.52778)" fill="#fff" fill-rule="evenodd" d="M312 162l2-4 1 4h4l-3 3 1 3-3-2-3 2v-3l-2-3z"/><path id="polygon13" transform="scale(3.52778)" fill="#fff" fill-rule="evenodd" d="M306 191l1-2 1 2h3l-3 2 1 3-2-2-3 2 1-3-2-2z"/><use xlink:href="#polygon11" height="140" width="200" id="use2846" transform="translate(-392 65)"/><path id="polygon17" transform="scale(3.52778)" fill="#fff" fill-rule="evenodd" d="M244 201l1-3 1 3h3l-2 2v3l-2-1-3 1 1-3-3-2z"/><path id="polygon19" transform="scale(3.52778)" fill="#fff" fill-rule="evenodd" d="M219 216l1-2 1 2h2l-2 1 1 2-2-1-2 1 1-2-2-1z"/><use xlink:href="#polygon11" height="140" width="200" id="use2848" transform="translate(-363 210)"/><use xlink:href="#polygon17" height="1400" width="2000" id="use3746" transform="translate(-156 104)"/><use xlink:href="#polygon17" height="1400" width="2000" id="use3748" transform="translate(-49 107)"/><use xlink:href="#polygon13" height="1400" width="2000" id="use3732" transform="translate(-280 179)"/><use xlink:href="#polygon11" height="140" width="200" id="use2850" transform="translate(-254 316)"/><path id="polygon31" transform="scale(3.52778)" fill="#fff" fill-rule="evenodd" d="M283 277l1-2 1 2h1l-1 1v1l-1-1-1 1v-1l-1-1z"/><use xlink:href="#polygon17" height="1400" width="2000" id="use3750" transform="translate(139 47)"/><use xlink:href="#polygon17" height="1400" width="2000" id="use3752" transform="translate(171 77)"/><path id="polygon37" transform="scale(3.52778)" fill="#fff" fill-rule="evenodd" d="M277 230l1-2v2h3l-2 1v2l-1-1-2 1v-2l-1-1z"/><use xlink:href="#polygon13" id="use3730" transform="translate(-128 117)" width="1" height="1"/><use xlink:href="#polygon11" id="use2852" transform="translate(-106 285)" width="1" height="1"/><use xlink:href="#polygon13" id="use3734" transform="translate(-9 220)" width="1" height="1"/><use xlink:href="#polygon17" id="use3754" transform="translate(238 228)" width="1" height="1"/><use xlink:href="#polygon13" id="use3736" transform="translate(51 229)" width="1" height="1"/><use xlink:href="#polygon13" id="use3740" transform="translate(93 292)" width="1" height="1"/><use xlink:href="#polygon17" id="use3756" transform="translate(312 219)" width="1" height="1"/><use xlink:href="#polygon13" id="use3738" transform="translate(93 221)" width="1" height="1"/><use xlink:href="#polygon13" id="use3742" transform="translate(127 221)" width="1" height="1"/><use xlink:href="#polygon17" id="use3758" transform="translate(378 171)" width="1" height="1"/><use xlink:href="#polygon17" id="use3760" transform="translate(395 143)" width="1" height="1"/><use xlink:href="#polygon11" id="use2854" transform="translate(138 245)" width="1" height="1"/><use xlink:href="#polygon13" id="use3744" transform="translate(214 147)" width="1" height="1"/><path id="path65" d="M791 592c208 0 399 77 545 203 5-17 9-35 11-53a881 881 0 0 0-664-190c-7 16-14 32-19 50 42-7 84-10 127-10z" fill="#fff"/><path id="path67" d="M701 574c0 3 1 6 3 8l6 2c3 0 5-1 7-3 1-2 2-5 1-9 0-3-1-6-3-7-1-2-4-3-6-3l-7 4-1 8zm-7 1c0-6 1-10 3-13 3-3 6-5 11-5 5-1 9 1 12 3 3 3 4 7 5 12 0 5-1 9-3 12-3 3-6 5-11 6-5 0-9-1-12-4s-4-6-5-11zm51-6l8-1 3-1 1-3-1-3-3-1h-8v9zm-6 17l-1-31h15c4 0 6 0 8 2 2 1 3 3 3 6l-1 5-4 3c2 0 3 1 3 2l1 5 1 3 1 4v1h-7l-1-2v-5l-1-4-4-1h-7l1 12h-7zm46-7l5 1c3 0 6-1 7-3l2-7c0-4 0-6-2-8-1-2-3-2-5-2l-6-1-1 20zm-6 6v-31h13c4 0 8 1 10 4 3 3 4 7 4 12l-2 7-4 6-4 2h-17zm39 1l2-31 23 1-1 5-16-1v7l15 1-1 5-15-1v8l17 1v6l-24-1zm37 2l3-31 10 1 3 24 9-23 10 1-4 31h-6l3-25-9 24-7-1-3-26-3 25h-6zm83 10l6-30 22 5-1 5-16-3-1 6 14 3-1 5-14-3-2 8 17 4-1 5-23-5zm82 2l6 2h4l2-3v-4l-3-2-6-1-3 8zm-1 6l-3 11-6-2 8-30 13 3 7 5v8c-1 3-2 5-4 6s-5 2-8 1l-7-2zm37 5l7 2h4c1 0 2-1 2-3v-3l-3-2-7-2-3 8zm-11 15l9-30 15 4c3 1 5 3 6 5v7l-2 4-4 1 2 3v5l-1 4v3l-1 1-6-2v-2-2l1-3v-4c0-1-1-2-3-2l-6-2-4 12-6-2zm47 0v8c1 2 2 4 5 5 2 1 5 0 7-1s4-3 5-6v-9c0-2-2-4-5-5-2-1-5 0-7 1s-3 3-5 7zm-6-3c2-4 5-8 8-10 4-1 8-2 12 0 5 2 8 4 9 8 2 4 2 8 0 13-2 4-5 8-8 10-4 1-8 2-12 0s-7-4-9-8-1-8 0-13zm58 37l-5 2-5-2c-4-1-7-4-8-8-2-4-1-8 1-12 2-5 4-8 8-10h12c3 2 6 4 7 7 2 2 2 5 1 8l-6-2v-4c-1-2-2-3-4-3-3-2-5-1-7 0s-4 3-5 6-2 6-1 8c1 3 2 4 5 6h5l4-4-6-2 2-5 12 5-7 15-4-1 1-4zm30-1l6 3 4 1 2-2 1-4-3-2-7-3-3 7zm-14 13l14-28 13 7c3 1 5 3 6 5s1 4-1 7c0 2-1 3-3 4l-4 1 2 3-1 4-2 4v3l-1 1-6-3v-1l1-3 1-3 1-4-3-2-6-3-5 11-6-3zm35 18l15-27 20 11-3 4-14-8-3 6 13 8-3 4-13-7-4 7 15 8-3 5-20-11zm35 10l6 3-1 4 4 4 4 1 3-2c1-1-1-4-5-8a31 31 0 0 1-5-6v-3l1-4c2-3 4-4 6-5l9 3 6 6c1 3 1 6-1 8l-5-3v-4l-3-3-4-1c-1 0-2 0-2 2a563 563 0 0 1 9 13l1 4-1 4c-2 3-4 4-7 5l-9-3c-4-2-6-4-7-7s0-5 1-8zm33 20l5 4v4l3 4 4 1 3-1c1-2 0-5-4-9h-1l-4-6v-3l2-4c1-3 3-4 6-4 3-1 6 0 9 3 3 2 5 4 5 6 1 3 1 6-1 8l-5-3v-4l-3-3-3-2-3 2c-1 1 0 3 2 6l2 1a70 70 0 0 1 5 7v4l-1 4c-2 2-4 4-7 4l-9-3c-4-2-6-5-6-7-1-3-1-6 1-9zm40 21c-3 3-4 5-3 8l3 6c2 2 4 2 7 2l6-5c3-3 4-6 3-8 0-3-1-5-3-6-2-2-4-2-7-2-2 1-4 2-6 5zm-6-4c3-4 7-6 11-7s8 0 11 3c4 3 6 6 7 10 0 5-1 9-4 13s-7 6-11 7c-4 0-8-1-11-4-4-2-6-6-7-10 0-4 1-8 4-12z" fill="#00a651"/></g></g></g></svg>